<svg version="1.1" id="Layer_1" xmlns="http://www.w3.org/2000/svg" xmlns:xlink="http://www.w3.org/1999/xlink" x="0px" y="0px"
	 width="100%" viewBox="0 0 1226 1108" enable-background="new 0 0 1226 1108" xml:space="preserve">
<path fill="#242424" opacity="1.000000" stroke="none" 
	d="
M1227.000000,412.000000 
	C1227.000000,644.666687 1227.000000,876.833313 1227.000000,1109.000000 
	C818.333313,1109.000000 409.666656,1109.000000 1.000000,1109.000000 
	C1.000000,739.666687 1.000000,370.333344 1.000000,1.000000 
	C409.666656,1.000000 818.333313,1.000000 1227.000000,1.000000 
	C1227.000000,137.833328 1227.000000,274.666656 1227.000000,412.000000 
M606.500000,731.990234 
	C629.324463,731.990112 652.148865,732.004517 674.973328,731.984131 
	C687.635681,731.972900 693.981995,725.589722 693.984985,712.852661 
	C693.997559,658.207397 693.998535,603.562195 693.986389,548.916931 
	C693.983765,537.295227 687.683899,531.010803 676.034546,531.008057 
	C621.389282,530.995178 566.744080,530.995667 512.098816,531.006958 
	C500.008759,531.009460 494.007935,537.053040 494.005768,549.218933 
	C493.996002,604.030762 493.997406,658.842651 494.006104,713.654480 
	C494.008057,725.901489 500.167786,731.987183 512.536438,731.989807 
	C543.524292,731.996338 574.512146,731.990845 606.500000,731.990234 
M370.500000,731.990234 
	C391.991577,731.990173 413.483124,732.005066 434.974701,731.984253 
	C447.636841,731.971924 453.981445,725.588806 453.984344,712.851318 
	C453.996643,658.206055 453.998016,603.560791 453.985992,548.915527 
	C453.983429,537.293640 447.684082,531.010803 436.033142,531.008057 
	C381.387878,530.995300 326.742645,530.995667 272.097382,531.006958 
	C260.008087,531.009399 254.007904,537.053467 254.005737,549.220398 
	C253.995987,604.032288 253.997421,658.844116 254.006104,713.656006 
	C254.008026,725.902222 260.167999,731.987366 272.537994,731.989807 
	C304.858673,731.996155 337.179321,731.990906 370.500000,731.990234 
M824.500000,731.990234 
	C854.821533,731.990051 885.143005,732.010437 915.464539,731.979370 
	C927.416870,731.967163 933.976196,725.372253 933.980835,713.361084 
	C934.002136,658.382629 934.003296,603.404236 933.981628,548.425781 
	C933.977295,537.476318 927.507812,531.017334 916.543030,531.012878 
	C861.564575,530.990662 806.586121,530.991455 751.607666,531.010986 
	C740.184814,531.015015 734.013489,537.227844 734.009888,548.710510 
	C733.992432,603.855530 733.994263,659.000610 734.009033,714.145630 
	C734.012146,725.723633 740.345703,731.979492 752.028015,731.987183 
	C775.851990,732.002869 799.676025,731.990845 824.500000,731.990234 
M734.663940,783.590820 
	C734.443359,785.565002 734.031372,787.539124 734.030090,789.513428 
	C733.995544,844.504700 733.991272,899.495911 734.012268,954.487183 
	C734.016479,965.493103 740.443298,971.976318 751.376465,971.980835 
	C806.201111,972.003784 861.025696,972.008423 915.850342,971.973938 
	C927.211853,971.966797 933.964050,965.269287 933.971985,953.968140 
	C934.010498,898.976868 934.008606,843.985657 933.975464,788.994385 
	C933.969238,778.672180 927.378418,772.028625 917.104980,772.021545 
	C861.613770,771.983398 806.122620,771.993835 750.631409,772.015015 
	C742.973938,772.017944 737.674377,775.605408 734.663940,783.590820 
M393.500000,772.002441 
	C352.849365,772.002380 312.198700,771.987793 271.548065,772.011536 
	C260.351715,772.018066 254.020615,778.225403 254.014984,789.270264 
	C253.986877,844.415283 253.988800,899.560303 254.015060,954.705322 
	C254.020142,965.371826 260.527344,971.970886 271.088287,971.976746 
	C326.066711,972.007446 381.045135,972.011597 436.023529,971.970703 
	C447.282959,971.962341 453.967865,965.172058 453.974579,953.801697 
	C454.006866,898.989868 454.003540,844.178101 453.980560,789.366272 
	C453.975952,778.440430 447.489807,772.038635 436.483490,772.011108 
	C422.489075,771.976135 408.494507,772.002502 393.500000,772.002441 
M494.002441,895.500000 
	C494.002472,914.825745 493.994965,934.151489 494.005157,953.477234 
	C494.011719,965.853088 500.087585,971.987549 512.359192,971.989075 
	C566.338013,971.995605 620.316772,971.994507 674.295593,971.987549 
	C687.930420,971.985840 693.987122,965.843140 693.988403,952.031067 
	C693.993408,898.218872 693.994568,844.406677 693.990051,790.594482 
	C693.989014,778.001953 687.930847,772.005615 675.212708,772.004456 
	C621.067322,771.999634 566.921875,771.999207 512.776489,772.003906 
	C499.713165,772.005066 494.004364,777.797729 494.002777,791.040649 
	C493.998596,825.527100 494.002045,860.013550 494.002441,895.500000 
M914.374451,291.002441 
	C860.392578,291.002045 806.410706,290.997162 752.428833,291.004669 
	C739.941528,291.006409 734.007141,296.928314 734.005310,309.390442 
	C733.997559,363.705597 733.999084,418.020721 734.004822,472.335876 
	C734.006165,484.979797 740.037537,490.988861 752.719421,490.989746 
	C806.534729,490.993469 860.350037,490.992981 914.165344,490.987335 
	C927.900146,490.985901 933.986694,484.898407 933.988159,471.159424 
	C933.993896,417.344116 933.993835,363.528778 933.990356,309.713470 
	C933.989563,297.050201 928.016113,291.071136 914.374451,291.002441 
M667.491821,291.002441 
	C615.845154,291.002045 564.198425,290.997650 512.551758,291.004120 
	C499.999878,291.005707 494.007690,296.897949 494.005554,309.265991 
	C493.996155,363.744965 493.997192,418.223907 494.006287,472.702881 
	C494.008301,484.726166 500.191772,490.984924 512.085266,490.987061 
	C566.231018,490.996918 620.376770,490.994568 674.522522,490.985992 
	C687.837219,490.983887 693.984741,484.762695 693.987610,471.303711 
	C693.995300,435.817413 693.990051,400.331116 693.990356,364.844818 
	C693.990479,346.018738 694.019226,327.192627 693.981079,308.366638 
	C693.958923,297.439606 687.490540,291.069244 676.483704,291.005096 
	C673.818115,290.989563 671.152466,291.002563 667.491821,291.002441 
M453.989380,446.500000 
	C453.990173,400.684601 453.997864,354.869202 453.986877,309.053802 
	C453.984070,297.355377 447.734406,291.012573 436.171509,291.009308 
	C381.359711,290.993805 326.547943,290.992310 271.736145,291.009277 
	C260.233826,291.012848 254.015030,297.169250 254.010849,308.582001 
	C253.990707,363.560394 253.990799,418.538788 254.012711,473.517181 
	C254.017075,484.497925 260.463226,490.976593 271.399933,490.980988 
	C326.211731,491.003021 381.023499,491.007355 435.835297,490.973938 
	C447.189484,490.967010 453.897766,484.265625 453.976746,472.989899 
	C454.036285,464.493652 453.989044,455.996674 453.989380,446.500000 
M665.995605,152.804367 
	C666.984009,150.459930 667.972473,148.115494 668.960876,145.771057 
	C669.363403,145.865677 669.765991,145.960312 670.168579,146.054932 
	C670.168579,152.896378 670.168579,159.737823 670.168579,166.679230 
	C674.632141,166.679230 678.504700,166.679230 682.406433,166.679230 
	C682.406433,150.427902 682.406433,134.523941 682.406433,118.671890 
	C668.836243,116.560547 668.766418,116.600166 663.848083,128.544128 
	C662.643799,131.468811 661.442810,134.395096 660.205933,137.306061 
	C658.964355,140.228256 657.679932,143.132248 655.916443,147.189590 
	C652.013062,137.740341 648.749207,129.585526 645.223206,121.545647 
	C644.615295,120.159424 642.985413,118.438606 641.669983,118.292648 
	C637.772583,117.860168 633.796448,118.137886 629.688721,118.137886 
	C629.688721,134.740448 629.688721,150.763031 629.688721,166.747803 
	C633.836548,166.747803 637.602905,166.747803 641.985901,166.747803 
	C641.985901,159.679916 641.985901,152.867905 641.985901,146.055908 
	C645.331848,151.153198 647.531555,156.438263 649.618530,161.767471 
	C650.781555,164.737259 651.561096,167.237305 655.964539,167.195938 
	C660.224060,167.155899 661.299072,165.000854 662.390869,161.883209 
	C663.380188,159.058289 664.604797,156.315826 665.995605,152.804367 
M600.454590,130.011200 
	C595.269775,129.031158 590.565674,129.984451 586.517090,133.620758 
	C581.824097,129.094162 576.470947,128.838470 570.728516,130.856827 
	C569.963379,131.125732 569.118103,131.552170 568.378174,131.443069 
	C564.363220,130.851028 560.369751,130.113663 556.238403,129.403931 
	C556.238403,142.576797 556.238403,154.650803 556.238403,166.853241 
	C560.347412,166.853241 564.146790,166.853241 568.488892,166.853241 
	C568.488892,163.068848 568.460510,159.440369 568.496582,155.812515 
	C568.536255,151.819275 568.245056,147.760483 568.905273,143.867157 
	C569.160034,142.365219 571.634277,141.239670 573.097290,139.942642 
	C574.254150,141.329529 575.811218,142.556244 576.449402,144.150726 
	C577.026001,145.591354 576.609619,147.433929 576.611145,149.099274 
	C576.616455,155.002350 576.613220,160.905411 576.613220,166.642487 
	C581.141235,166.642487 584.878479,166.642487 588.913452,166.642487 
	C588.913452,159.128937 588.672424,151.972427 589.088501,144.854294 
	C589.188416,143.144089 591.470032,141.561417 592.748352,139.920090 
	C594.141296,141.250458 595.825867,142.397720 596.819031,143.979187 
	C597.424133,144.942734 596.978394,146.575333 596.979614,147.907440 
	C596.985168,154.173035 596.982056,160.438644 596.982056,166.655426 
	C601.451477,166.655426 605.342529,166.655426 609.433228,166.655426 
	C609.433228,157.823425 609.583862,149.346848 609.378601,140.878906 
	C609.248535,135.515076 606.373962,131.850845 600.454590,130.011200 
M482.845398,129.675049 
	C479.694427,123.354431 474.433533,119.760292 467.585815,119.071091 
	C459.861664,118.293678 452.069641,118.190178 443.951996,117.775429 
	C443.951996,134.517441 443.951996,150.559052 443.951996,167.012833 
	C445.537750,167.012833 447.003113,167.022141 448.468353,167.011200 
	C454.449341,166.966553 460.462891,167.293060 466.403748,166.780075 
	C475.674835,165.979538 482.839050,159.426605 484.850800,150.347977 
	C486.356201,143.554260 486.216522,136.810059 482.845398,129.675049 
M380.864746,134.296661 
	C380.565613,135.931885 380.141205,137.555405 379.987000,139.204178 
	C378.595703,154.081848 385.250702,164.591095 397.822266,167.453125 
	C410.949280,170.441589 423.582764,161.884003 424.220184,149.283325 
	C420.273163,149.283325 416.333344,149.283325 412.354370,149.283325 
	C408.516357,157.163910 400.425720,159.543213 396.095490,153.381744 
	C393.748993,150.042953 393.043427,145.047485 392.926819,140.763184 
	C392.753021,134.375977 396.353912,129.982224 401.054688,129.040314 
	C406.509827,127.947250 409.068329,129.667572 412.456879,136.628891 
	C416.439026,136.628891 420.359833,136.628891 424.528839,136.628891 
	C423.956482,128.833694 420.457214,123.385155 413.804108,120.060287 
	C400.628906,113.476059 386.347809,119.382370 380.864746,134.296661 
M366.978088,136.965775 
	C370.078461,136.965775 373.178864,136.965775 376.295288,136.965775 
	C375.679199,125.105003 366.552246,117.120567 354.752655,117.484047 
	C340.300323,117.929245 331.505768,128.068909 331.870209,143.866302 
	C332.206757,158.454758 341.410919,168.062820 354.933105,167.941223 
	C366.860565,167.833954 376.061859,159.807404 376.083252,149.238190 
	C372.155426,149.238190 368.222443,149.238190 364.084076,149.238190 
	C363.043945,153.873230 359.936310,156.970688 355.377563,156.451080 
	C352.325256,156.103149 348.401215,154.138184 346.863434,151.658752 
	C343.460266,146.171738 343.764771,139.834610 346.672546,133.975418 
	C348.442200,130.409561 351.589752,128.776962 355.678406,128.890823 
	C359.714722,129.003204 362.074280,131.024033 363.502686,134.682617 
	C363.875336,135.636978 365.219696,136.211929 366.978088,136.965775 
M791.182617,131.123871 
	C785.814941,130.831497 780.447266,130.539124 774.516846,130.216110 
	C774.516846,127.037651 774.516846,122.775085 774.516846,118.475250 
	C770.305847,118.475250 766.576599,118.475250 762.640198,118.475250 
	C762.640198,134.740585 762.640198,150.660721 762.640198,166.802551 
	C766.833679,166.802551 770.767212,166.802551 775.004333,166.802551 
	C775.004333,161.095001 775.001648,155.604553 775.005005,150.114105 
	C775.009583,142.478790 776.257141,139.768417 780.237732,140.100082 
	C786.707642,140.639130 784.828247,145.937988 784.989807,149.746902 
	C785.228149,155.366776 785.051392,161.004227 785.051392,166.748291 
	C789.383545,166.748291 793.302063,166.748291 797.441101,166.748291 
	C797.441101,158.016373 797.960693,149.508987 797.185181,141.121368 
	C796.875244,137.769684 793.708679,134.682144 791.182617,131.123871 
M301.556641,167.024673 
	C303.501129,167.024673 305.445648,167.024673 307.934998,167.024673 
	C307.934998,160.450958 307.934998,154.394547 307.934998,147.739685 
	C314.512085,147.739685 320.553192,147.739685 326.449524,147.739685 
	C326.449524,144.024292 326.449524,140.940170 326.449524,137.353897 
	C320.214508,137.353897 314.302643,137.353897 308.203003,137.353897 
	C308.203003,134.292435 308.203003,131.759933 308.203003,128.769775 
	C315.110107,128.769775 321.693085,128.769775 328.534180,128.769775 
	C328.534180,125.088974 328.534180,121.872627 328.534180,118.394035 
	C317.327637,118.394035 306.430908,118.394035 295.379425,118.394035 
	C295.379425,134.673752 295.379425,150.699646 295.379425,167.024673 
	C297.334656,167.024673 298.985016,167.024673 301.556641,167.024673 
M854.990845,155.479065 
	C854.986877,151.654892 855.061951,147.828674 854.964172,144.006912 
	C854.667603,132.418930 846.680908,126.921188 835.605713,130.614838 
	C834.531799,130.973007 833.377686,131.647369 832.354858,131.503906 
	C828.346985,130.941833 824.376892,130.110580 820.190796,129.342255 
	C820.190796,142.537827 820.190796,154.611481 820.190796,166.688904 
	C824.351746,166.688904 828.246765,166.688904 832.498596,166.688904 
	C832.498596,159.902573 832.497192,153.438950 832.499146,146.975327 
	C832.500244,143.300430 833.429077,140.053650 837.820557,140.082596 
	C842.268982,140.111908 842.359558,143.672729 842.379395,146.927536 
	C842.419617,153.533173 842.391479,160.139221 842.391479,166.712799 
	C846.921936,166.712799 850.830322,166.712799 854.990723,166.712799 
	C854.990723,163.091019 854.990723,159.772095 854.990845,155.479065 
M694.210083,145.607971 
	C688.157715,147.998566 685.746521,151.427063 686.090820,157.152405 
	C686.572327,165.159424 694.966553,169.999496 703.604858,167.302017 
	C705.054749,166.849274 706.596130,166.358215 708.078735,166.405136 
	C711.976196,166.528519 715.864624,166.938736 720.058533,167.257645 
	C720.058533,158.132629 720.486877,149.631485 719.832397,141.214569 
	C719.594788,138.159195 717.491943,134.177933 714.988281,132.576599 
	C708.299438,128.298508 700.814880,128.328003 693.684143,132.051422 
	C689.993652,133.978485 687.651550,137.115097 687.302246,142.059631 
	C692.043823,142.036118 696.819153,145.306793 700.967346,140.015244 
	C701.682617,139.102753 704.299011,139.451202 705.982971,139.658340 
	C706.533936,139.726105 706.912964,141.192078 707.370605,142.018616 
	C705.843872,142.709869 704.377197,143.651810 702.776672,144.035095 
	C700.213196,144.649002 697.560974,144.892639 694.210083,145.607971 
M551.106567,135.777863 
	C551.106567,133.970276 551.106567,132.162674 551.106567,130.274643 
	C546.781006,130.274643 542.867188,130.274643 538.581909,130.274643 
	C538.581909,136.539810 538.603516,142.518082 538.575806,148.496094 
	C538.548767,154.328049 536.713379,157.366669 533.178955,156.925217 
	C528.219177,156.305710 528.796143,152.293381 528.774292,148.823395 
	C528.735718,142.700974 528.763489,136.578171 528.763489,130.277863 
	C524.355164,130.277863 520.463562,130.277863 516.142212,130.277863 
	C516.142212,136.861069 516.128052,143.158432 516.150635,149.455673 
	C516.157776,151.453293 516.102600,153.470673 516.350220,155.444580 
	C517.594116,165.356735 526.175781,170.365021 535.381226,166.627151 
	C536.415161,166.207336 537.528564,165.381592 538.499939,165.514206 
	C542.541321,166.065964 546.542419,166.912628 551.106506,167.751907 
	C551.106506,156.670380 551.106506,146.693512 551.106567,135.777863 
M861.100403,137.657959 
	C860.539673,138.862717 859.792480,140.016769 859.448669,141.280563 
	C857.329041,149.072128 857.399170,156.698090 863.517334,162.713760 
	C869.419373,168.516983 876.841492,169.152039 884.445984,166.670425 
	C889.805786,164.921280 893.427795,161.345642 894.367310,154.964294 
	C889.311646,154.745026 884.831848,152.206085 880.437317,157.165115 
	C877.509705,160.468719 872.361755,157.505417 871.203552,152.014359 
	C878.852356,152.014359 886.421631,152.014359 893.913574,152.014359 
	C895.463501,141.900528 892.076843,134.316727 884.680603,131.072968 
	C878.717529,128.457764 866.549377,128.516388 861.100403,137.657959 
M744.135925,167.859055 
	C755.319824,165.052002 759.312195,160.768219 758.526550,152.036407 
	C755.763977,152.036407 752.939392,151.835861 750.167786,152.131775 
	C749.003967,152.256042 747.913574,153.377228 746.858887,154.140686 
	C745.239380,155.313019 743.287903,157.848404 742.179565,157.509384 
	C740.143494,156.886551 737.661865,154.865646 737.106750,152.928665 
	C736.286499,150.066299 736.476440,146.634171 737.243530,143.708786 
	C737.662109,142.112350 740.068298,140.183243 741.739197,140.016357 
	C743.315613,139.858902 745.116333,141.792923 746.792908,142.847427 
	C747.882202,143.532547 748.873962,144.801407 750.000122,144.915771 
	C752.921143,145.212433 755.892395,145.015350 758.831726,145.015350 
	C758.711792,137.168213 754.320190,131.597794 747.527893,130.168335 
	C737.129761,127.980011 728.873474,131.530319 725.249878,139.748215 
	C718.955200,154.023560 727.714417,167.707520 744.135925,167.859055 
M489.935974,137.666061 
	C489.935974,147.370407 489.935974,157.074753 489.935974,166.805878 
	C494.444183,166.805878 498.218567,166.805878 502.485657,166.805878 
	C502.485657,160.494293 502.428741,154.377655 502.501160,148.262543 
	C502.578522,141.730667 504.605377,139.991333 511.007996,140.702515 
	C511.788513,140.789215 512.587036,140.714325 513.981934,140.714325 
	C513.981934,138.658295 513.984253,136.888702 513.981445,135.119095 
	C513.972534,129.447464 512.332947,128.248489 506.711395,129.786179 
	C505.320435,130.166656 503.901428,130.887115 502.529877,130.812881 
	C498.490143,130.594284 494.467712,130.055359 489.936066,129.590240 
	C489.936066,132.467850 489.936066,134.593292 489.935974,137.666061 
M810.301147,167.024673 
	C811.768311,167.024673 813.235474,167.024673 814.769531,167.024673 
	C814.769531,154.495270 814.769531,142.418228 814.769531,130.260483 
	C810.624939,130.260483 806.717773,130.260483 802.677002,130.260483 
	C802.677002,142.596451 802.677002,154.645416 802.677002,167.024673 
	C805.112976,167.024673 807.254333,167.024673 810.301147,167.024673 
M809.263123,115.691223 
	C806.944092,117.195862 804.027283,118.282372 802.558899,120.381943 
	C801.827209,121.428162 803.168823,125.276871 804.611206,126.158417 
	C806.536499,127.335068 809.765015,127.636047 811.877991,126.839279 
	C813.479614,126.235336 815.481506,122.925217 815.041443,121.537086 
	C814.340149,119.325241 811.755432,117.710541 809.263123,115.691223 
z"/>
<path fill="#2F2F2F" opacity="1.000000" stroke="none" 
	d="
M606.000000,731.990234 
	C574.512146,731.990845 543.524292,731.996338 512.536438,731.989807 
	C500.167786,731.987183 494.008057,725.901489 494.006104,713.654480 
	C493.997406,658.842651 493.996002,604.030762 494.005768,549.218933 
	C494.007935,537.053040 500.008759,531.009460 512.098816,531.006958 
	C566.744080,530.995667 621.389282,530.995178 676.034546,531.008057 
	C687.683899,531.010803 693.983765,537.295227 693.986389,548.916931 
	C693.998535,603.562195 693.997559,658.207397 693.984985,712.852661 
	C693.981995,725.589722 687.635681,731.972900 674.973328,731.984131 
	C652.148865,732.004517 629.324463,731.990112 606.000000,731.990234 
M549.500000,728.000000 
	C591.646240,727.999634 633.792542,728.015869 675.938782,727.985901 
	C685.020386,727.979431 689.959351,723.404541 689.968018,714.731262 
	C690.023193,659.258179 690.021362,603.785095 689.969849,548.312012 
	C689.961914,539.786316 685.106262,535.031189 676.481750,535.024475 
	C621.508423,534.981567 566.535095,534.981445 511.561798,535.023804 
	C502.730682,535.030640 498.024719,539.829712 498.019043,548.768188 
	C497.984009,603.908142 497.983948,659.048035 498.018555,714.187988 
	C498.024292,723.339294 502.753387,727.946838 512.017761,727.986328 
	C524.178284,728.038147 536.339233,727.999634 549.500000,728.000000 
z"/>
<path fill="#2F2F2F" opacity="1.000000" stroke="none" 
	d="
M370.000000,731.990234 
	C337.179321,731.990906 304.858673,731.996155 272.537994,731.989807 
	C260.167999,731.987366 254.008026,725.902222 254.006104,713.656006 
	C253.997421,658.844116 253.995987,604.032288 254.005737,549.220398 
	C254.007904,537.053467 260.008087,531.009399 272.097382,531.006958 
	C326.742645,530.995667 381.387878,530.995300 436.033142,531.008057 
	C447.684082,531.010803 453.983429,537.293640 453.985992,548.915527 
	C453.998016,603.560791 453.996643,658.206055 453.984344,712.851318 
	C453.981445,725.588806 447.636841,731.971924 434.974701,731.984253 
	C413.483124,732.005066 391.991577,731.990173 370.000000,731.990234 
M330.500000,535.000000 
	C311.675781,535.000000 292.851562,534.996399 274.027344,535.001282 
	C261.995636,535.004395 258.002930,538.935242 258.001984,550.800598 
	C257.997650,604.607788 257.997650,658.414978 258.002014,712.222168 
	C258.002960,723.899414 262.037048,727.996155 273.550293,727.997437 
	C327.190918,728.003235 380.831543,728.003296 434.472168,727.997314 
	C445.968567,727.995972 449.997101,723.892456 449.998047,712.199707 
	C450.002289,658.392517 450.002411,604.585327 449.997955,550.778137 
	C449.996979,538.928284 445.999542,535.002625 433.950256,535.001282 
	C399.800171,534.997498 365.650085,535.000000 330.500000,535.000000 
z"/>
<path fill="#2F2F2F" opacity="1.000000" stroke="none" 
	d="
M824.000000,731.990234 
	C799.676025,731.990845 775.851990,732.002869 752.028015,731.987183 
	C740.345703,731.979492 734.012146,725.723633 734.009033,714.145630 
	C733.994263,659.000610 733.992432,603.855530 734.009888,548.710510 
	C734.013489,537.227844 740.184814,531.015015 751.607666,531.010986 
	C806.586121,530.991455 861.564575,530.990662 916.543030,531.012878 
	C927.507812,531.017334 933.977295,537.476318 933.981628,548.425781 
	C934.003296,603.404236 934.002136,658.382629 933.980835,713.361084 
	C933.976196,725.372253 927.416870,731.967163 915.464539,731.979370 
	C885.143005,732.010437 854.821533,731.990051 824.000000,731.990234 
M918.897461,727.928833 
	C927.200562,725.851074 929.992126,722.211121 929.994019,713.266785 
	C930.005615,658.784973 930.006836,604.303101 929.993713,549.821289 
	C929.991150,539.334656 925.600708,535.007019 914.988953,535.005005 
	C861.006958,534.994507 807.024963,534.994629 753.042969,535.004700 
	C742.421204,535.006714 738.009155,539.334656 738.006531,549.789307 
	C737.992920,604.271179 737.992920,658.752991 738.006592,713.234863 
	C738.009216,723.518188 742.410461,727.989563 752.567322,727.991394 
	C807.715576,728.001526 862.863770,727.985229 918.897461,727.928833 
z"/>
<path fill="#2F2F2F" opacity="1.000000" stroke="none" 
	d="
M734.786194,783.199707 
	C737.674377,775.605408 742.973938,772.017944 750.631409,772.015015 
	C806.122620,771.993835 861.613770,771.983398 917.104980,772.021545 
	C927.378418,772.028625 933.969238,778.672180 933.975464,788.994385 
	C934.008606,843.985657 934.010498,898.976868 933.971985,953.968140 
	C933.964050,965.269287 927.211853,971.966797 915.850342,971.973938 
	C861.025696,972.008423 806.201111,972.003784 751.376465,971.980835 
	C740.443298,971.976318 734.016479,965.493103 734.012268,954.487183 
	C733.991272,899.495911 733.995544,844.504700 734.030090,789.513428 
	C734.031372,787.539124 734.443359,785.565002 734.786194,783.199707 
M910.457397,968.000000 
	C911.290405,968.000000 912.130005,967.931580 912.955505,968.010315 
	C924.728516,969.133728 930.251160,963.083374 930.162292,950.715393 
	C929.781677,897.743042 930.002319,844.766418 929.998108,791.791321 
	C929.997131,780.105103 925.966248,776.003906 914.462891,776.002625 
	C860.821472,775.996765 807.180115,775.996765 753.538696,776.002686 
	C742.034363,776.003906 738.002747,780.104919 738.001831,791.789856 
	C737.997620,845.264709 738.162781,898.740417 737.856201,952.213501 
	C737.798157,962.338318 743.321960,968.221191 754.043518,968.151611 
	C805.850281,967.814941 857.660400,968.000000 910.457397,968.000000 
z"/>
<path fill="#2F2F2F" opacity="1.000000" stroke="none" 
	d="
M394.000000,772.002441 
	C408.494507,772.002502 422.489075,771.976135 436.483490,772.011108 
	C447.489807,772.038635 453.975952,778.440430 453.980560,789.366272 
	C454.003540,844.178101 454.006866,898.989868 453.974579,953.801697 
	C453.967865,965.172058 447.282959,971.962341 436.023529,971.970703 
	C381.045135,972.011597 326.066711,972.007446 271.088287,971.976746 
	C260.527344,971.970886 254.020142,965.371826 254.015060,954.705322 
	C253.988800,899.560303 253.986877,844.415283 254.014984,789.270264 
	C254.020615,778.225403 260.351715,772.018066 271.548065,772.011536 
	C312.198700,771.987793 352.849365,772.002380 394.000000,772.002441 
M376.500000,968.000000 
	C395.657288,968.000000 414.814606,968.003540 433.971893,967.998779 
	C446.004303,967.995789 449.997131,964.064941 449.998108,952.200378 
	C450.002380,898.726379 450.002411,845.252319 449.998108,791.778320 
	C449.997162,780.100952 445.962982,776.003784 434.450348,776.002563 
	C380.809723,775.996826 327.169128,775.996704 273.528503,776.002563 
	C262.031769,776.003845 258.002747,780.107666 258.001831,791.799500 
	C257.997650,845.273499 257.997528,898.747559 258.001923,952.221558 
	C258.002899,964.071289 262.000549,967.997314 274.049286,967.998657 
	C307.866180,968.002441 341.683105,968.000000 376.500000,968.000000 
z"/>
<path fill="#2F2F2F" opacity="1.000000" stroke="none" 
	d="
M494.002441,895.000000 
	C494.002045,860.013550 493.998596,825.527100 494.002777,791.040649 
	C494.004364,777.797729 499.713165,772.005066 512.776489,772.003906 
	C566.921875,771.999207 621.067322,771.999634 675.212708,772.004456 
	C687.930847,772.005615 693.989014,778.001953 693.990051,790.594482 
	C693.994568,844.406677 693.993408,898.218872 693.988403,952.031067 
	C693.987122,965.843140 687.930420,971.985840 674.295593,971.987549 
	C620.316772,971.994507 566.338013,971.995605 512.359192,971.989075 
	C500.087585,971.987549 494.011719,965.853088 494.005157,953.477234 
	C493.994965,934.151489 494.002472,914.825745 494.002441,895.000000 
M593.500000,968.000000 
	C620.320312,968.000000 647.140625,968.002991 673.960938,967.998718 
	C686.002930,967.996765 689.997131,964.069092 689.998108,952.211182 
	C690.002441,898.737244 690.002380,845.263245 689.998108,791.789307 
	C689.997192,780.104553 685.965820,776.003906 674.461243,776.002686 
	C620.820679,775.996765 567.180176,775.996826 513.539612,776.002563 
	C502.210693,776.003723 498.005493,780.135376 498.003845,791.288757 
	C497.995850,845.095886 497.995850,898.903015 498.003845,952.710144 
	C498.005493,963.864868 502.209717,967.993835 513.538452,967.997314 
	C539.858948,968.005371 566.179504,967.999939 593.500000,968.000000 
z"/>
<path fill="#2F2F2F" opacity="1.000000" stroke="none" 
	d="
M914.852173,291.002441 
	C928.016113,291.071136 933.989563,297.050201 933.990356,309.713470 
	C933.993835,363.528778 933.993896,417.344116 933.988159,471.159424 
	C933.986694,484.898407 927.900146,490.985901 914.165344,490.987335 
	C860.350037,490.992981 806.534729,490.993469 752.719421,490.989746 
	C740.037537,490.988861 734.006165,484.979797 734.004822,472.335876 
	C733.999084,418.020721 733.997559,363.705597 734.005310,309.390442 
	C734.007141,296.928314 739.941528,291.006409 752.428833,291.004669 
	C806.410706,290.997162 860.392578,291.002045 914.852173,291.002441 
M738.000000,421.500000 
	C738.000000,437.991943 737.996277,454.483887 738.001282,470.975830 
	C738.004883,483.004822 741.936584,486.997101 753.803589,486.998047 
	C807.277588,487.002319 860.751648,487.002411 914.225647,486.998047 
	C925.900330,486.997101 929.996216,482.962036 929.997437,471.446411 
	C930.003174,417.805817 930.003357,364.165192 929.997437,310.524597 
	C929.996155,299.030762 925.891235,295.002777 914.196655,295.001862 
	C860.889221,294.997650 807.580566,295.187500 754.275330,294.845947 
	C743.262329,294.775360 737.739136,300.571625 737.850403,311.054779 
	C738.237488,347.532928 738.000000,384.017731 738.000000,421.500000 
z"/>
<path fill="#2F2F2F" opacity="1.000000" stroke="none" 
	d="
M667.989319,291.002441 
	C671.152466,291.002563 673.818115,290.989563 676.483704,291.005096 
	C687.490540,291.069244 693.958923,297.439606 693.981079,308.366638 
	C694.019226,327.192627 693.990479,346.018738 693.990356,364.844818 
	C693.990051,400.331116 693.995300,435.817413 693.987610,471.303711 
	C693.984741,484.762695 687.837219,490.983887 674.522522,490.985992 
	C620.376770,490.994568 566.231018,490.996918 512.085266,490.987061 
	C500.191772,490.984924 494.008301,484.726166 494.006287,472.702881 
	C493.997192,418.223907 493.996155,363.744965 494.005554,309.265991 
	C494.007690,296.897949 499.999878,291.005707 512.551758,291.004120 
	C564.198425,290.997650 615.845154,291.002045 667.989319,291.002441 
M690.000000,430.500000 
	C689.999573,390.019806 690.016418,349.539581 689.985535,309.059387 
	C689.978638,299.977783 685.403931,295.040985 676.729126,295.032288 
	C621.589355,294.976990 566.449585,294.978729 511.309845,295.030518 
	C502.784454,295.038544 498.031525,299.894135 498.024780,308.520721 
	C497.981903,363.493866 497.981781,418.467102 498.024261,473.440247 
	C498.031097,482.270569 502.830505,486.974976 511.770508,486.980713 
	C566.577087,487.015839 621.383728,487.015900 676.190308,486.981049 
	C685.340454,486.975220 689.951416,482.245728 689.985657,472.979706 
	C690.036682,459.153320 689.999573,445.326599 690.000000,430.500000 
z"/>
<path fill="#2F2F2F" opacity="1.000000" stroke="none" 
	d="
M453.989380,447.000000 
	C453.989044,455.996674 454.036285,464.493652 453.976746,472.989899 
	C453.897766,484.265625 447.189484,490.967010 435.835297,490.973938 
	C381.023499,491.007355 326.211731,491.003021 271.399933,490.980988 
	C260.463226,490.976593 254.017075,484.497925 254.012711,473.517181 
	C253.990799,418.538788 253.990707,363.560394 254.010849,308.582001 
	C254.015030,297.169250 260.233826,291.012848 271.736145,291.009277 
	C326.547943,290.992310 381.359711,290.993805 436.171509,291.009308 
	C447.734406,291.012573 453.984070,297.355377 453.986877,309.053802 
	C453.997864,354.869202 453.990173,400.684601 453.989380,447.000000 
M416.500000,295.000000 
	C368.356781,295.000366 320.213593,294.986938 272.070374,295.013550 
	C263.243469,295.018433 258.061768,299.558594 258.049805,307.759949 
	C257.969025,363.232849 257.972961,418.705933 258.045227,474.178864 
	C258.055542,482.102295 263.009735,486.953033 271.009705,486.962036 
	C326.316071,487.024414 381.622589,487.023010 436.928955,486.964081 
	C444.957397,486.955536 449.940887,482.142273 449.951782,474.240204 
	C450.028290,418.767303 450.027069,363.294220 449.954834,307.821289 
	C449.944519,299.897858 444.991455,295.175079 436.990051,295.028931 
	C430.495361,294.910309 423.996796,295.001709 416.500000,295.000000 
z"/>
<path fill="#DADADA" opacity="1.000000" stroke="none" 
	d="
M665.860596,153.170685 
	C664.604797,156.315826 663.380188,159.058289 662.390869,161.883209 
	C661.299072,165.000854 660.224060,167.155899 655.964539,167.195938 
	C651.561096,167.237305 650.781555,164.737259 649.618530,161.767471 
	C647.531555,156.438263 645.331848,151.153198 641.985901,146.055908 
	C641.985901,152.867905 641.985901,159.679916 641.985901,166.747803 
	C637.602905,166.747803 633.836548,166.747803 629.688721,166.747803 
	C629.688721,150.763031 629.688721,134.740448 629.688721,118.137886 
	C633.796448,118.137886 637.772583,117.860168 641.669983,118.292648 
	C642.985413,118.438606 644.615295,120.159424 645.223206,121.545647 
	C648.749207,129.585526 652.013062,137.740341 655.916443,147.189590 
	C657.679932,143.132248 658.964355,140.228256 660.205933,137.306061 
	C661.442810,134.395096 662.643799,131.468811 663.848083,128.544128 
	C668.766418,116.600166 668.836243,116.560547 682.406433,118.671890 
	C682.406433,134.523941 682.406433,150.427902 682.406433,166.679230 
	C678.504700,166.679230 674.632141,166.679230 670.168579,166.679230 
	C670.168579,159.737823 670.168579,152.896378 670.168579,146.054932 
	C669.765991,145.960312 669.363403,145.865677 668.960876,145.771057 
	C667.972473,148.115494 666.984009,150.459930 665.860596,153.170685 
z"/>
<path fill="#DDDDDD" opacity="1.000000" stroke="none" 
	d="
M600.837952,130.054276 
	C606.373962,131.850845 609.248535,135.515076 609.378601,140.878906 
	C609.583862,149.346848 609.433228,157.823425 609.433228,166.655426 
	C605.342529,166.655426 601.451477,166.655426 596.982056,166.655426 
	C596.982056,160.438644 596.985168,154.173035 596.979614,147.907440 
	C596.978394,146.575333 597.424133,144.942734 596.819031,143.979187 
	C595.825867,142.397720 594.141296,141.250458 592.748352,139.920090 
	C591.470032,141.561417 589.188416,143.144089 589.088501,144.854294 
	C588.672424,151.972427 588.913452,159.128937 588.913452,166.642487 
	C584.878479,166.642487 581.141235,166.642487 576.613220,166.642487 
	C576.613220,160.905411 576.616455,155.002350 576.611145,149.099274 
	C576.609619,147.433929 577.026001,145.591354 576.449402,144.150726 
	C575.811218,142.556244 574.254150,141.329529 573.097290,139.942642 
	C571.634277,141.239670 569.160034,142.365219 568.905273,143.867157 
	C568.245056,147.760483 568.536255,151.819275 568.496582,155.812515 
	C568.460510,159.440369 568.488892,163.068848 568.488892,166.853241 
	C564.146790,166.853241 560.347412,166.853241 556.238403,166.853241 
	C556.238403,154.650803 556.238403,142.576797 556.238403,129.403931 
	C560.369751,130.113663 564.363220,130.851028 568.378174,131.443069 
	C569.118103,131.552170 569.963379,131.125732 570.728516,130.856827 
	C576.470947,128.838470 581.824097,129.094162 586.517090,133.620758 
	C590.565674,129.984451 595.269775,129.031158 600.837952,130.054276 
z"/>
<path fill="#DEDEDE" opacity="1.000000" stroke="none" 
	d="
M483.002991,130.016617 
	C486.216522,136.810059 486.356201,143.554260 484.850800,150.347977 
	C482.839050,159.426605 475.674835,165.979538 466.403748,166.780075 
	C460.462891,167.293060 454.449341,166.966553 448.468353,167.011200 
	C447.003113,167.022141 445.537750,167.012833 443.951996,167.012833 
	C443.951996,150.559052 443.951996,134.517441 443.951996,117.775429 
	C452.069641,118.190178 459.861664,118.293678 467.585815,119.071091 
	C474.433533,119.760292 479.694427,123.354431 483.002991,130.016617 
M472.055511,135.817627 
	C469.026031,129.736099 465.076752,128.114746 456.520325,129.546783 
	C456.520325,138.251846 456.520325,146.986359 456.520325,155.677963 
	C468.547272,157.469772 473.549683,153.116241 473.020081,141.521896 
	C472.944916,139.876221 472.542694,138.245468 472.055511,135.817627 
z"/>
<path fill="#DDDDDD" opacity="1.000000" stroke="none" 
	d="
M380.965271,133.914703 
	C386.347809,119.382370 400.628906,113.476059 413.804108,120.060287 
	C420.457214,123.385155 423.956482,128.833694 424.528839,136.628891 
	C420.359833,136.628891 416.439026,136.628891 412.456879,136.628891 
	C409.068329,129.667572 406.509827,127.947250 401.054688,129.040314 
	C396.353912,129.982224 392.753021,134.375977 392.926819,140.763184 
	C393.043427,145.047485 393.748993,150.042953 396.095490,153.381744 
	C400.425720,159.543213 408.516357,157.163910 412.354370,149.283325 
	C416.333344,149.283325 420.273163,149.283325 424.220184,149.283325 
	C423.582764,161.884003 410.949280,170.441589 397.822266,167.453125 
	C385.250702,164.591095 378.595703,154.081848 379.987000,139.204178 
	C380.141205,137.555405 380.565613,135.931885 380.965271,133.914703 
z"/>
<path fill="#DDDDDD" opacity="1.000000" stroke="none" 
	d="
M366.547913,136.963440 
	C365.219696,136.211929 363.875336,135.636978 363.502686,134.682617 
	C362.074280,131.024033 359.714722,129.003204 355.678406,128.890823 
	C351.589752,128.776962 348.442200,130.409561 346.672546,133.975418 
	C343.764771,139.834610 343.460266,146.171738 346.863434,151.658752 
	C348.401215,154.138184 352.325256,156.103149 355.377563,156.451080 
	C359.936310,156.970688 363.043945,153.873230 364.084076,149.238190 
	C368.222443,149.238190 372.155426,149.238190 376.083252,149.238190 
	C376.061859,159.807404 366.860565,167.833954 354.933105,167.941223 
	C341.410919,168.062820 332.206757,158.454758 331.870209,143.866302 
	C331.505768,128.068909 340.300323,117.929245 354.752655,117.484047 
	C366.552246,117.120567 375.679199,125.105003 376.295288,136.965775 
	C373.178864,136.965775 370.078461,136.965775 366.547913,136.963440 
z"/>
<path fill="#DADADA" opacity="1.000000" stroke="none" 
	d="
M791.512512,131.299118 
	C793.708679,134.682144 796.875244,137.769684 797.185181,141.121368 
	C797.960693,149.508987 797.441101,158.016373 797.441101,166.748291 
	C793.302063,166.748291 789.383545,166.748291 785.051392,166.748291 
	C785.051392,161.004227 785.228149,155.366776 784.989807,149.746902 
	C784.828247,145.937988 786.707642,140.639130 780.237732,140.100082 
	C776.257141,139.768417 775.009583,142.478790 775.005005,150.114105 
	C775.001648,155.604553 775.004333,161.095001 775.004333,166.802551 
	C770.767212,166.802551 766.833679,166.802551 762.640198,166.802551 
	C762.640198,150.660721 762.640198,134.740585 762.640198,118.475250 
	C766.576599,118.475250 770.305847,118.475250 774.516846,118.475250 
	C774.516846,122.775085 774.516846,127.037651 774.516846,130.216110 
	C780.447266,130.539124 785.814941,130.831497 791.512512,131.299118 
z"/>
<path fill="#DADADA" opacity="1.000000" stroke="none" 
	d="
M301.096008,167.024673 
	C298.985016,167.024673 297.334656,167.024673 295.379425,167.024673 
	C295.379425,150.699646 295.379425,134.673752 295.379425,118.394035 
	C306.430908,118.394035 317.327637,118.394035 328.534180,118.394035 
	C328.534180,121.872627 328.534180,125.088974 328.534180,128.769775 
	C321.693085,128.769775 315.110107,128.769775 308.203003,128.769775 
	C308.203003,131.759933 308.203003,134.292435 308.203003,137.353897 
	C314.302643,137.353897 320.214508,137.353897 326.449524,137.353897 
	C326.449524,140.940170 326.449524,144.024292 326.449524,147.739685 
	C320.553192,147.739685 314.512085,147.739685 307.934998,147.739685 
	C307.934998,154.394547 307.934998,160.450958 307.934998,167.024673 
	C305.445648,167.024673 303.501129,167.024673 301.096008,167.024673 
z"/>
<path fill="#DDDDDD" opacity="1.000000" stroke="none" 
	d="
M854.990784,155.966125 
	C854.990723,159.772095 854.990723,163.091019 854.990723,166.712799 
	C850.830322,166.712799 846.921936,166.712799 842.391479,166.712799 
	C842.391479,160.139221 842.419617,153.533173 842.379395,146.927536 
	C842.359558,143.672729 842.268982,140.111908 837.820557,140.082596 
	C833.429077,140.053650 832.500244,143.300430 832.499146,146.975327 
	C832.497192,153.438950 832.498596,159.902573 832.498596,166.688904 
	C828.246765,166.688904 824.351746,166.688904 820.190796,166.688904 
	C820.190796,154.611481 820.190796,142.537827 820.190796,129.342255 
	C824.376892,130.110580 828.346985,130.941833 832.354858,131.503906 
	C833.377686,131.647369 834.531799,130.973007 835.605713,130.614838 
	C846.680908,126.921188 854.667603,132.418930 854.964172,144.006912 
	C855.061951,147.828674 854.986877,151.654892 854.990784,155.966125 
z"/>
<path fill="#DDDDDD" opacity="1.000000" stroke="none" 
	d="
M694.578186,145.450378 
	C697.560974,144.892639 700.213196,144.649002 702.776672,144.035095 
	C704.377197,143.651810 705.843872,142.709869 707.370605,142.018616 
	C706.912964,141.192078 706.533936,139.726105 705.982971,139.658340 
	C704.299011,139.451202 701.682617,139.102753 700.967346,140.015244 
	C696.819153,145.306793 692.043823,142.036118 687.302246,142.059631 
	C687.651550,137.115097 689.993652,133.978485 693.684143,132.051422 
	C700.814880,128.328003 708.299438,128.298508 714.988281,132.576599 
	C717.491943,134.177933 719.594788,138.159195 719.832397,141.214569 
	C720.486877,149.631485 720.058533,158.132629 720.058533,167.257645 
	C715.864624,166.938736 711.976196,166.528519 708.078735,166.405136 
	C706.596130,166.358215 705.054749,166.849274 703.604858,167.302017 
	C694.966553,169.999496 686.572327,165.159424 686.090820,157.152405 
	C685.746521,151.427063 688.157715,147.998566 694.578186,145.450378 
M699.353699,153.610641 
	C699.238342,155.045364 699.122925,156.480087 699.007568,157.914810 
	C700.851685,157.996231 703.123657,158.780563 704.433167,157.983582 
	C706.123291,156.955017 707.043640,154.661697 708.295471,152.913010 
	C707.907471,152.533218 707.519409,152.153442 707.131409,151.773666 
	C704.758606,152.243927 702.385803,152.714188 699.353699,153.610641 
z"/>
<path fill="#DDDDDD" opacity="1.000000" stroke="none" 
	d="
M551.106567,136.247253 
	C551.106506,146.693512 551.106506,156.670380 551.106506,167.751907 
	C546.542419,166.912628 542.541321,166.065964 538.499939,165.514206 
	C537.528564,165.381592 536.415161,166.207336 535.381226,166.627151 
	C526.175781,170.365021 517.594116,165.356735 516.350220,155.444580 
	C516.102600,153.470673 516.157776,151.453293 516.150635,149.455673 
	C516.128052,143.158432 516.142212,136.861069 516.142212,130.277863 
	C520.463562,130.277863 524.355164,130.277863 528.763489,130.277863 
	C528.763489,136.578171 528.735718,142.700974 528.774292,148.823395 
	C528.796143,152.293381 528.219177,156.305710 533.178955,156.925217 
	C536.713379,157.366669 538.548767,154.328049 538.575806,148.496094 
	C538.603516,142.518082 538.581909,136.539810 538.581909,130.274643 
	C542.867188,130.274643 546.781006,130.274643 551.106567,130.274643 
	C551.106567,132.162674 551.106567,133.970276 551.106567,136.247253 
z"/>
<path fill="#DDDDDD" opacity="1.000000" stroke="none" 
	d="
M861.296509,137.349304 
	C866.549377,128.516388 878.717529,128.457764 884.680603,131.072968 
	C892.076843,134.316727 895.463501,141.900528 893.913574,152.014359 
	C886.421631,152.014359 878.852356,152.014359 871.203552,152.014359 
	C872.361755,157.505417 877.509705,160.468719 880.437317,157.165115 
	C884.831848,152.206085 889.311646,154.745026 894.367310,154.964294 
	C893.427795,161.345642 889.805786,164.921280 884.445984,166.670425 
	C876.841492,169.152039 869.419373,168.516983 863.517334,162.713760 
	C857.399170,156.698090 857.329041,149.072128 859.448669,141.280563 
	C859.792480,140.016769 860.539673,138.862717 861.296509,137.349304 
M873.049561,140.425507 
	C872.375549,141.432053 871.701538,142.438583 870.954773,143.553757 
	C875.013245,143.553757 878.506653,143.553757 882.450134,143.553757 
	C880.191833,139.452927 877.681763,137.755768 873.049561,140.425507 
z"/>
<path fill="#DDDDDD" opacity="1.000000" stroke="none" 
	d="
M743.707764,167.886841 
	C727.714417,167.707520 718.955200,154.023560 725.249878,139.748215 
	C728.873474,131.530319 737.129761,127.980011 747.527893,130.168335 
	C754.320190,131.597794 758.711792,137.168213 758.831726,145.015350 
	C755.892395,145.015350 752.921143,145.212433 750.000122,144.915771 
	C748.873962,144.801407 747.882202,143.532547 746.792908,142.847427 
	C745.116333,141.792923 743.315613,139.858902 741.739197,140.016357 
	C740.068298,140.183243 737.662109,142.112350 737.243530,143.708786 
	C736.476440,146.634171 736.286499,150.066299 737.106750,152.928665 
	C737.661865,154.865646 740.143494,156.886551 742.179565,157.509384 
	C743.287903,157.848404 745.239380,155.313019 746.858887,154.140686 
	C747.913574,153.377228 749.003967,152.256042 750.167786,152.131775 
	C752.939392,151.835861 755.763977,152.036407 758.526550,152.036407 
	C759.312195,160.768219 755.319824,165.052002 743.707764,167.886841 
z"/>
<path fill="#DEDEDE" opacity="1.000000" stroke="none" 
	d="
M489.936035,137.192383 
	C489.936066,134.593292 489.936066,132.467850 489.936066,129.590240 
	C494.467712,130.055359 498.490143,130.594284 502.529877,130.812881 
	C503.901428,130.887115 505.320435,130.166656 506.711395,129.786179 
	C512.332947,128.248489 513.972534,129.447464 513.981445,135.119095 
	C513.984253,136.888702 513.981934,138.658295 513.981934,140.714325 
	C512.587036,140.714325 511.788513,140.789215 511.007996,140.702515 
	C504.605377,139.991333 502.578522,141.730667 502.501160,148.262543 
	C502.428741,154.377655 502.485657,160.494293 502.485657,166.805878 
	C498.218567,166.805878 494.444183,166.805878 489.935974,166.805878 
	C489.935974,157.074753 489.935974,147.370407 489.936035,137.192383 
z"/>
<path fill="#DADADA" opacity="1.000000" stroke="none" 
	d="
M809.848389,167.024673 
	C807.254333,167.024673 805.112976,167.024673 802.677002,167.024673 
	C802.677002,154.645416 802.677002,142.596451 802.677002,130.260483 
	C806.717773,130.260483 810.624939,130.260483 814.769531,130.260483 
	C814.769531,142.418228 814.769531,154.495270 814.769531,167.024673 
	C813.235474,167.024673 811.768311,167.024673 809.848389,167.024673 
z"/>
<path fill="#DADADA" opacity="1.000000" stroke="none" 
	d="
M809.615173,115.767273 
	C811.755432,117.710541 814.340149,119.325241 815.041443,121.537086 
	C815.481506,122.925217 813.479614,126.235336 811.877991,126.839279 
	C809.765015,127.636047 806.536499,127.335068 804.611206,126.158417 
	C803.168823,125.276871 801.827209,121.428162 802.558899,120.381943 
	C804.027283,118.282372 806.944092,117.195862 809.615173,115.767273 
z"/>
<path fill="#3F3F3F" opacity="1.000000" stroke="none" 
	d="
M549.000000,728.000000 
	C536.339233,727.999634 524.178284,728.038147 512.017761,727.986328 
	C502.753387,727.946838 498.024292,723.339294 498.018555,714.187988 
	C497.983948,659.048035 497.984009,603.908142 498.019043,548.768188 
	C498.024719,539.829712 502.730682,535.030640 511.561798,535.023804 
	C566.535095,534.981445 621.508423,534.981567 676.481750,535.024475 
	C685.106262,535.031189 689.961914,539.786316 689.969849,548.312012 
	C690.021362,603.785095 690.023193,659.258179 689.968018,714.731262 
	C689.959351,723.404541 685.020386,727.979431 675.938782,727.985901 
	C633.792542,728.015869 591.646240,727.999634 549.000000,728.000000 
M591.068787,645.952637 
	C593.062500,645.971985 595.097595,646.257202 597.041321,645.954895 
	C600.964722,645.344727 604.482605,643.999329 605.094543,639.272827 
	C605.724121,634.410461 603.778809,631.275391 598.960266,630.032715 
	C596.079041,629.289734 593.115173,628.752014 590.364014,627.673950 
	C589.203918,627.219299 587.772339,625.603333 587.782532,624.527832 
	C587.793152,623.410889 589.244995,621.558411 590.332642,621.337524 
	C593.999451,620.592773 597.915710,619.609680 600.347168,624.182800 
	C600.923645,625.267151 602.809631,625.655212 604.922729,626.821350 
	C603.189453,618.655273 600.197449,616.601624 592.385193,616.971252 
	C587.947083,617.181213 583.270996,620.318665 583.045227,623.678284 
	C582.716064,628.577393 586.316650,630.533569 590.174866,631.903931 
	C592.813904,632.841248 595.715759,633.100647 598.262573,634.208862 
	C599.462646,634.731079 600.636475,636.457397 600.833984,637.785095 
	C600.997925,638.887085 600.023499,640.661499 599.015747,641.342834 
	C595.644409,643.622253 589.025391,642.117493 587.258057,638.414856 
	C585.845825,635.456177 584.285522,635.674072 581.505432,636.666443 
	C583.332764,641.194336 585.569092,644.624756 591.068787,645.952637 
z"/>
<path fill="#3F3F3F" opacity="1.000000" stroke="none" 
	d="
M331.000000,535.000000 
	C365.650085,535.000000 399.800171,534.997498 433.950256,535.001282 
	C445.999542,535.002625 449.996979,538.928284 449.997955,550.778137 
	C450.002411,604.585327 450.002289,658.392517 449.998047,712.199707 
	C449.997101,723.892456 445.968567,727.995972 434.472168,727.997314 
	C380.831543,728.003296 327.190918,728.003235 273.550293,727.997437 
	C262.037048,727.996155 258.002960,723.899414 258.002014,712.222168 
	C257.997650,658.414978 257.997650,604.607788 258.001984,550.800598 
	C258.002930,538.935242 261.995636,535.004395 274.027344,535.001282 
	C292.851562,534.996399 311.675781,535.000000 331.000000,535.000000 
M357.295929,637.336548 
	C358.754944,639.032776 360.740326,640.512024 361.549622,642.476013 
	C362.763489,645.421814 364.079559,647.028564 367.578796,645.475525 
	C364.059937,636.731018 360.606567,627.953064 356.929077,619.270020 
	C356.491913,618.237854 354.912598,617.380981 353.707825,617.094543 
	C352.950104,616.914490 351.359070,617.735596 351.069305,618.472229 
	C347.529907,627.471436 344.162506,636.538208 340.750488,645.587463 
	C341.110992,645.928101 341.471466,646.268738 341.831970,646.609314 
	C343.136871,645.776978 345.438171,645.091125 345.585632,644.088562 
	C346.569916,637.395874 350.877289,636.553955 357.295929,637.336548 
z"/>
<path fill="#3F3F3F" opacity="1.000000" stroke="none" 
	d="
M918.454712,727.953430 
	C862.863770,727.985229 807.715576,728.001526 752.567322,727.991394 
	C742.410461,727.989563 738.009216,723.518188 738.006592,713.234863 
	C737.992920,658.752991 737.992920,604.271179 738.006531,549.789307 
	C738.009155,539.334656 742.421204,535.006714 753.042969,535.004700 
	C807.024963,534.994629 861.006958,534.994507 914.988953,535.005005 
	C925.600708,535.007019 929.991150,539.334656 929.993713,549.821289 
	C930.006836,604.303101 930.005615,658.784973 929.994019,713.266785 
	C929.992126,722.211121 927.200562,725.851074 918.454712,727.953430 
M821.952515,619.099182 
	C822.080017,627.436462 822.207581,635.773682 822.759338,645.172791 
	C826.823059,645.459106 830.888367,645.998779 834.950073,645.972534 
	C841.109009,645.932678 845.502197,641.568970 845.975159,635.358582 
	C846.138855,633.208435 846.005859,631.036377 846.026306,628.874512 
	C846.072754,623.951294 844.271057,619.140320 839.575073,618.220947 
	C834.112976,617.151550 828.224060,618.259644 822.521118,618.444153 
	C822.454468,618.446289 822.397034,618.734070 821.952515,619.099182 
z"/>
<path fill="#3F3F3F" opacity="1.000000" stroke="none" 
	d="
M909.963379,968.000000 
	C857.660400,968.000000 805.850281,967.814941 754.043518,968.151611 
	C743.321960,968.221191 737.798157,962.338318 737.856201,952.213501 
	C738.162781,898.740417 737.997620,845.264709 738.001831,791.789856 
	C738.002747,780.104919 742.034363,776.003906 753.538696,776.002686 
	C807.180115,775.996765 860.821472,775.996765 914.462891,776.002625 
	C925.966248,776.003906 929.997131,780.105103 929.998108,791.791321 
	C930.002319,844.766418 929.781677,897.743042 930.162292,950.715393 
	C930.251160,963.083374 924.728516,969.133728 912.955505,968.010315 
	C912.130005,967.931580 911.290405,968.000000 909.963379,968.000000 
M826.169678,883.510315 
	C835.471558,888.986267 844.602234,886.049438 846.003662,876.324585 
	C844.326782,876.801270 842.654907,877.507751 841.730286,878.764160 
	C838.189392,883.575562 830.548401,884.182983 827.903748,879.072327 
	C826.222168,875.822632 825.668884,871.319214 826.377686,867.726746 
	C826.890503,865.127380 829.919617,862.341431 832.526855,861.008911 
	C835.881714,859.294556 839.171204,860.747437 841.579590,864.031982 
	C842.348572,865.080688 844.191589,865.341858 846.543091,866.423218 
	C845.249939,860.426208 842.351013,857.961731 838.430908,857.218628 
	C833.382385,856.261597 828.445557,856.865112 824.719360,861.099365 
	C819.716431,866.784668 820.101379,875.961304 826.169678,883.510315 
z"/>
<path fill="#3F3F3F" opacity="1.000000" stroke="none" 
	d="
M376.000000,968.000000 
	C341.683105,968.000000 307.866180,968.002441 274.049286,967.998657 
	C262.000549,967.997314 258.002899,964.071289 258.001923,952.221558 
	C257.997528,898.747559 257.997650,845.273499 258.001831,791.799500 
	C258.002747,780.107666 262.031769,776.003845 273.528503,776.002563 
	C327.169128,775.996704 380.809723,775.996826 434.450348,776.002563 
	C445.962982,776.003784 449.997162,780.100952 449.998108,791.778320 
	C450.002411,845.252319 450.002380,898.726379 449.998108,952.200378 
	C449.997131,964.064941 446.004303,967.995789 433.971893,967.998779 
	C414.814606,968.003540 395.657288,968.000000 376.000000,968.000000 
M346.874969,856.966797 
	C345.956177,857.561523 345.037354,858.156250 344.118561,858.751038 
	C345.019562,859.423767 345.890472,860.623657 346.826782,860.677063 
	C350.683197,860.897278 354.559448,860.769287 359.410431,860.769287 
	C353.630096,868.115295 348.660034,874.324341 343.837433,880.645813 
	C342.802368,882.002625 342.300873,883.766418 341.330902,885.812561 
	C349.885986,885.812561 357.334534,885.812561 365.026947,885.812561 
	C364.988678,879.872437 360.599182,882.707520 358.254486,882.342773 
	C355.159668,881.861267 351.933441,882.224304 348.103333,882.224304 
	C353.998627,873.190918 361.492035,866.717712 366.380341,856.965576 
	C359.067596,856.965576 353.439056,856.965576 346.874969,856.966797 
z"/>
<path fill="#3F3F3F" opacity="1.000000" stroke="none" 
	d="
M593.000000,968.000000 
	C566.179504,967.999939 539.858948,968.005371 513.538452,967.997314 
	C502.209717,967.993835 498.005493,963.864868 498.003845,952.710144 
	C497.995850,898.903015 497.995850,845.095886 498.003845,791.288757 
	C498.005493,780.135376 502.210693,776.003723 513.539612,776.002563 
	C567.180176,775.996826 620.820679,775.996765 674.461243,776.002686 
	C685.965820,776.003906 689.997192,780.104553 689.998108,791.789307 
	C690.002380,845.263245 690.002441,898.737244 689.998108,952.211182 
	C689.997131,964.069092 686.002930,967.996765 673.960938,967.998718 
	C647.140625,968.002991 620.320312,968.000000 593.000000,968.000000 
M600.875916,876.539734 
	C599.547913,874.638916 598.219910,872.738159 596.786743,870.686890 
	C600.006714,866.236206 603.145020,861.898438 606.701233,856.983032 
	C598.934509,856.644653 598.642578,864.007629 594.445496,866.549255 
	C590.072449,864.167236 590.253357,855.981750 582.230164,857.210327 
	C585.610840,862.107483 588.666443,866.533813 591.716248,870.951660 
	C588.054749,875.999146 584.652771,880.688782 580.744202,886.076782 
	C589.204041,886.465210 589.419983,878.199524 594.330688,875.156372 
	C596.056335,877.451538 597.931946,879.692444 599.517334,882.122620 
	C601.297424,884.851135 602.994934,887.354492 607.093506,885.420471 
	C605.079102,882.557678 603.173279,879.849121 600.875916,876.539734 
z"/>
<path fill="#3F3F3F" opacity="1.000000" stroke="none" 
	d="
M738.000000,421.000000 
	C738.000000,384.017731 738.237488,347.532928 737.850403,311.054779 
	C737.739136,300.571625 743.262329,294.775360 754.275330,294.845947 
	C807.580566,295.187500 860.889221,294.997650 914.196655,295.001862 
	C925.891235,295.002777 929.996155,299.030762 929.997437,310.524597 
	C930.003357,364.165192 930.003174,417.805817 929.997437,471.446411 
	C929.996216,482.962036 925.900330,486.997101 914.225647,486.998047 
	C860.751648,487.002411 807.277588,487.002319 753.803589,486.998047 
	C741.936584,486.997101 738.004883,483.004822 738.001282,470.975830 
	C737.996277,454.483887 738.000000,437.991943 738.000000,421.000000 
M838.363586,375.965424 
	C833.616089,375.965424 828.868652,375.965424 824.130981,375.965424 
	C824.130981,385.959015 824.130981,395.358398 824.130981,404.828186 
	C831.184875,404.828186 837.955139,404.828186 844.865906,404.828186 
	C844.865906,403.831696 844.946289,402.358429 844.854431,402.347595 
	C839.408386,401.705902 833.948120,401.184814 828.426025,400.646057 
	C828.426025,397.852844 828.426025,394.988159 828.426025,391.775696 
	C831.748047,391.775696 834.720459,391.776703 837.692871,391.775452 
	C843.379944,391.773041 843.379944,391.772552 843.582031,387.920288 
	C838.495850,387.920288 833.419495,387.920288 828.358032,387.920288 
	C828.358032,385.027527 828.358032,382.611206 828.358032,379.771790 
	C833.101807,379.771790 837.575806,379.930359 842.023193,379.657013 
	C843.096191,379.591034 844.081238,378.095612 845.106750,377.257507 
	C844.824768,376.826813 844.542786,376.396118 844.260742,375.965424 
	C842.611450,375.965424 840.962097,375.965424 838.363586,375.965424 
z"/>
<path fill="#3F3F3F" opacity="1.000000" stroke="none" 
	d="
M690.000000,431.000000 
	C689.999573,445.326599 690.036682,459.153320 689.985657,472.979706 
	C689.951416,482.245728 685.340454,486.975220 676.190308,486.981049 
	C621.383728,487.015900 566.577087,487.015839 511.770508,486.980713 
	C502.830505,486.974976 498.031097,482.270569 498.024261,473.440247 
	C497.981781,418.467102 497.981903,363.493866 498.024780,308.520721 
	C498.031525,299.894135 502.784454,295.038544 511.309845,295.030518 
	C566.449585,294.978729 621.589355,294.976990 676.729126,295.032288 
	C685.403931,295.040985 689.978638,299.977783 689.985535,309.059387 
	C690.016418,349.539581 689.999573,390.019806 690.000000,431.000000 
M589.825684,382.024841 
	C588.438416,386.766235 587.051208,391.507660 585.663940,396.249054 
	C585.194397,396.137939 584.724915,396.026825 584.255371,395.915710 
	C582.916992,390.287659 581.385498,384.695984 580.314331,379.017548 
	C579.695068,375.734894 578.236267,375.439728 575.499451,376.543152 
	C577.916443,386.038055 580.279663,395.321869 582.684021,404.766907 
	C585.715454,405.703796 587.480591,404.959961 588.303101,401.153351 
	C589.624146,395.040222 591.657715,389.081085 593.390137,383.056854 
	C596.364014,389.685852 598.081848,396.217407 600.031494,402.679077 
	C600.318970,403.631805 601.607605,404.635498 602.616760,404.891541 
	C603.273743,405.058167 604.809021,404.070648 605.020752,403.333191 
	C607.574890,394.436920 609.955505,385.490753 612.381409,376.557617 
	C611.892883,376.187866 611.404358,375.818115 610.915894,375.448364 
	C609.823120,376.617004 608.143738,377.612640 607.739258,378.984283 
	C605.991821,384.909698 604.617615,390.945129 603.107605,396.940521 
	C602.832947,396.894196 602.558228,396.847839 602.283508,396.801514 
	C600.364319,389.957458 598.445129,383.113434 596.517395,376.238770 
	C594.652588,376.238770 593.058228,376.238770 591.480469,376.238770 
	C590.933044,378.069885 590.460571,379.650116 589.825684,382.024841 
z"/>
<path fill="#3F3F3F" opacity="1.000000" stroke="none" 
	d="
M417.000000,295.000000 
	C423.996796,295.001709 430.495361,294.910309 436.990051,295.028931 
	C444.991455,295.175079 449.944519,299.897858 449.954834,307.821289 
	C450.027069,363.294220 450.028290,418.767303 449.951782,474.240204 
	C449.940887,482.142273 444.957397,486.955536 436.928955,486.964081 
	C381.622589,487.023010 326.316071,487.024414 271.009705,486.962036 
	C263.009735,486.953033 258.055542,482.102295 258.045227,474.178864 
	C257.972961,418.705933 257.969025,363.232849 258.049805,307.759949 
	C258.061768,299.558594 263.243469,295.018433 272.070374,295.013550 
	C320.213593,294.986938 368.356781,295.000366 417.000000,295.000000 
M351.847504,375.985382 
	C343.364716,377.853516 338.881622,384.264343 340.107452,392.773621 
	C341.318512,401.180145 347.232300,405.947113 355.932434,404.910797 
	C359.291260,404.510651 362.330536,403.777130 365.180511,406.295319 
	C365.584747,406.652466 366.804413,406.086792 367.646667,405.948242 
	C367.482666,405.086426 367.598022,403.956909 367.089020,403.425690 
	C366.331116,402.634735 365.132355,402.266235 364.119446,401.717010 
	C372.016785,387.683624 366.800659,376.061096 351.847504,375.985382 
z"/>
<path fill="#2F2F2F" opacity="1.000000" stroke="none" 
	d="
M472.173676,136.212723 
	C472.542694,138.245468 472.944916,139.876221 473.020081,141.521896 
	C473.549683,153.116241 468.547272,157.469772 456.520325,155.677963 
	C456.520325,146.986359 456.520325,138.251846 456.520325,129.546783 
	C465.076752,128.114746 469.026031,129.736099 472.173676,136.212723 
z"/>
<path fill="#3F3F3F" opacity="1.000000" stroke="none" 
	d="
M699.683350,153.397552 
	C702.385803,152.714188 704.758606,152.243927 707.131409,151.773666 
	C707.519409,152.153442 707.907471,152.533218 708.295471,152.913010 
	C707.043640,154.661697 706.123291,156.955017 704.433167,157.983582 
	C703.123657,158.780563 700.851685,157.996231 699.007568,157.914810 
	C699.122925,156.480087 699.238342,155.045364 699.683350,153.397552 
z"/>
<path fill="#2F2F2F" opacity="1.000000" stroke="none" 
	d="
M873.373291,140.208984 
	C877.681763,137.755768 880.191833,139.452927 882.450134,143.553757 
	C878.506653,143.553757 875.013245,143.553757 870.954773,143.553757 
	C871.701538,142.438583 872.375549,141.432053 873.373291,140.208984 
z"/>
<path fill="#F0F4F1" opacity="1.000000" stroke="none" 
	d="
M590.656128,645.884399 
	C585.569092,644.624756 583.332764,641.194336 581.505432,636.666443 
	C584.285522,635.674072 585.845825,635.456177 587.258057,638.414856 
	C589.025391,642.117493 595.644409,643.622253 599.015747,641.342834 
	C600.023499,640.661499 600.997925,638.887085 600.833984,637.785095 
	C600.636475,636.457397 599.462646,634.731079 598.262573,634.208862 
	C595.715759,633.100647 592.813904,632.841248 590.174866,631.903931 
	C586.316650,630.533569 582.716064,628.577393 583.045227,623.678284 
	C583.270996,620.318665 587.947083,617.181213 592.385193,616.971252 
	C600.197449,616.601624 603.189453,618.655273 604.922729,626.821350 
	C602.809631,625.655212 600.923645,625.267151 600.347168,624.182800 
	C597.915710,619.609680 593.999451,620.592773 590.332642,621.337524 
	C589.244995,621.558411 587.793152,623.410889 587.782532,624.527832 
	C587.772339,625.603333 589.203918,627.219299 590.364014,627.673950 
	C593.115173,628.752014 596.079041,629.289734 598.960266,630.032715 
	C603.778809,631.275391 605.724121,634.410461 605.094543,639.272827 
	C604.482605,643.999329 600.964722,645.344727 597.041321,645.954895 
	C595.097595,646.257202 593.062500,645.971985 590.656128,645.884399 
z"/>
<path fill="#F0F4F1" opacity="1.000000" stroke="none" 
	d="
M356.825562,637.334229 
	C350.877289,636.553955 346.569916,637.395874 345.585632,644.088562 
	C345.438171,645.091125 343.136871,645.776978 341.831970,646.609314 
	C341.471466,646.268738 341.110992,645.928101 340.750488,645.587463 
	C344.162506,636.538208 347.529907,627.471436 351.069305,618.472229 
	C351.359070,617.735596 352.950104,616.914490 353.707825,617.094543 
	C354.912598,617.380981 356.491913,618.237854 356.929077,619.270020 
	C360.606567,627.953064 364.059937,636.731018 367.578796,645.475525 
	C364.079559,647.028564 362.763489,645.421814 361.549622,642.476013 
	C360.740326,640.512024 358.754944,639.032776 356.825562,637.334229 
M356.386932,628.298584 
	C355.617737,626.373535 354.848541,624.448425 353.769623,621.748169 
	C352.148621,626.274170 350.847717,629.906372 349.523254,633.604370 
	C352.586578,633.604370 355.242798,633.604370 357.999664,633.604370 
	C357.493896,631.834351 357.092957,630.431213 356.386932,628.298584 
z"/>
<path fill="#F0F4F1" opacity="1.000000" stroke="none" 
	d="
M822.335327,618.888489 
	C822.397034,618.734070 822.454468,618.446289 822.521118,618.444153 
	C828.224060,618.259644 834.112976,617.151550 839.575073,618.220947 
	C844.271057,619.140320 846.072754,623.951294 846.026306,628.874512 
	C846.005859,631.036377 846.138855,633.208435 845.975159,635.358582 
	C845.502197,641.568970 841.109009,645.932678 834.950073,645.972534 
	C830.888367,645.998779 826.823059,645.459106 822.686096,644.419922 
	C822.520325,635.407593 822.427795,627.148010 822.335327,618.888489 
M826.034241,631.501465 
	C826.034241,634.940491 826.034241,638.379578 826.034241,642.367310 
	C831.391235,641.464478 836.971436,644.363098 840.557861,638.653625 
	C842.947327,634.849792 842.700500,626.654541 839.960144,623.499329 
	C836.006775,618.947449 830.952698,621.301819 826.034241,620.895935 
	C826.034241,624.574219 826.034241,627.545654 826.034241,631.501465 
z"/>
<path fill="#3F3F3F" opacity="1.000000" stroke="none" 
	d="
M822.143921,618.993835 
	C822.427795,627.148010 822.520325,635.407593 822.473999,643.889038 
	C822.207581,635.773682 822.080017,627.436462 822.143921,618.993835 
z"/>
<path fill="#F0F4F1" opacity="1.000000" stroke="none" 
	d="
M825.894409,883.257324 
	C820.101379,875.961304 819.716431,866.784668 824.719360,861.099365 
	C828.445557,856.865112 833.382385,856.261597 838.430908,857.218628 
	C842.351013,857.961731 845.249939,860.426208 846.543091,866.423218 
	C844.191589,865.341858 842.348572,865.080688 841.579590,864.031982 
	C839.171204,860.747437 835.881714,859.294556 832.526855,861.008911 
	C829.919617,862.341431 826.890503,865.127380 826.377686,867.726746 
	C825.668884,871.319214 826.222168,875.822632 827.903748,879.072327 
	C830.548401,884.182983 838.189392,883.575562 841.730286,878.764160 
	C842.654907,877.507751 844.326782,876.801270 846.003662,876.324585 
	C844.602234,886.049438 835.471558,888.986267 825.894409,883.257324 
z"/>
<path fill="#F0F4F1" opacity="1.000000" stroke="none" 
	d="
M347.342743,856.966187 
	C353.439056,856.965576 359.067596,856.965576 366.380341,856.965576 
	C361.492035,866.717712 353.998627,873.190918 348.103333,882.224304 
	C351.933441,882.224304 355.159668,881.861267 358.254486,882.342773 
	C360.599182,882.707520 364.988678,879.872437 365.026947,885.812561 
	C357.334534,885.812561 349.885986,885.812561 341.330902,885.812561 
	C342.300873,883.766418 342.802368,882.002625 343.837433,880.645813 
	C348.660034,874.324341 353.630096,868.115295 359.410431,860.769287 
	C354.559448,860.769287 350.683197,860.897278 346.826782,860.677063 
	C345.890472,860.623657 345.019562,859.423767 344.118530,858.750977 
	C345.037354,858.156250 345.956177,857.561523 347.342743,856.966187 
z"/>
<path fill="#F0F4F1" opacity="1.000000" stroke="none" 
	d="
M601.071655,876.840210 
	C603.173279,879.849121 605.079102,882.557678 607.093506,885.420471 
	C602.994934,887.354492 601.297424,884.851135 599.517334,882.122620 
	C597.931946,879.692444 596.056335,877.451538 594.330688,875.156372 
	C589.419983,878.199524 589.204041,886.465210 580.744202,886.076782 
	C584.652771,880.688782 588.054749,875.999146 591.716248,870.951660 
	C588.666443,866.533813 585.610840,862.107483 582.230164,857.210327 
	C590.253357,855.981750 590.072449,864.167236 594.445496,866.549255 
	C598.642578,864.007629 598.934509,856.644653 606.701233,856.983032 
	C603.145020,861.898438 600.006714,866.236206 596.786743,870.686890 
	C598.219910,872.738159 599.547913,874.638916 601.071655,876.840210 
z"/>
<path fill="#F0F4F1" opacity="1.000000" stroke="none" 
	d="
M838.838196,375.965424 
	C840.962097,375.965424 842.611450,375.965424 844.260742,375.965424 
	C844.542786,376.396118 844.824768,376.826813 845.106750,377.257507 
	C844.081238,378.095612 843.096191,379.591034 842.023193,379.657013 
	C837.575806,379.930359 833.101807,379.771790 828.358032,379.771790 
	C828.358032,382.611206 828.358032,385.027527 828.358032,387.920288 
	C833.419495,387.920288 838.495850,387.920288 843.582031,387.920288 
	C843.379944,391.772552 843.379944,391.773041 837.692871,391.775452 
	C834.720459,391.776703 831.748047,391.775696 828.426025,391.775696 
	C828.426025,394.988159 828.426025,397.852844 828.426025,400.646057 
	C833.948120,401.184814 839.408386,401.705902 844.854431,402.347595 
	C844.946289,402.358429 844.865906,403.831696 844.865906,404.828186 
	C837.955139,404.828186 831.184875,404.828186 824.130981,404.828186 
	C824.130981,395.358398 824.130981,385.959015 824.130981,375.965424 
	C828.868652,375.965424 833.616089,375.965424 838.838196,375.965424 
z"/>
<path fill="#F0F4F1" opacity="1.000000" stroke="none" 
	d="
M589.906860,381.627625 
	C590.460571,379.650116 590.933044,378.069885 591.480469,376.238770 
	C593.058228,376.238770 594.652588,376.238770 596.517395,376.238770 
	C598.445129,383.113434 600.364319,389.957458 602.283508,396.801514 
	C602.558228,396.847839 602.832947,396.894196 603.107605,396.940521 
	C604.617615,390.945129 605.991821,384.909698 607.739258,378.984283 
	C608.143738,377.612640 609.823120,376.617004 610.915894,375.448364 
	C611.404358,375.818115 611.892883,376.187866 612.381409,376.557617 
	C609.955505,385.490753 607.574890,394.436920 605.020752,403.333191 
	C604.809021,404.070648 603.273743,405.058167 602.616760,404.891541 
	C601.607605,404.635498 600.318970,403.631805 600.031494,402.679077 
	C598.081848,396.217407 596.364014,389.685852 593.390137,383.056854 
	C591.657715,389.081085 589.624146,395.040222 588.303101,401.153351 
	C587.480591,404.959961 585.715454,405.703796 582.684021,404.766907 
	C580.279663,395.321869 577.916443,386.038055 575.499451,376.543152 
	C578.236267,375.439728 579.695068,375.734894 580.314331,379.017548 
	C581.385498,384.695984 582.916992,390.287659 584.255371,395.915710 
	C584.724915,396.026825 585.194397,396.137939 585.663940,396.249054 
	C587.051208,391.507660 588.438416,386.766235 589.906860,381.627625 
z"/>
<path fill="#F0F4F1" opacity="1.000000" stroke="none" 
	d="
M352.278931,375.976624 
	C366.800659,376.061096 372.016785,387.683624 364.119446,401.717010 
	C365.132355,402.266235 366.331116,402.634735 367.089020,403.425690 
	C367.598022,403.956909 367.482666,405.086426 367.646667,405.948242 
	C366.804413,406.086792 365.584747,406.652466 365.180511,406.295319 
	C362.330536,403.777130 359.291260,404.510651 355.932434,404.910797 
	C347.232300,405.947113 341.318512,401.180145 340.107452,392.773621 
	C338.881622,384.264343 343.364716,377.853516 352.278931,375.976624 
M355.111694,379.500061 
	C347.655945,379.971252 344.028107,383.567200 344.024017,390.490417 
	C344.020020,397.243469 347.613525,400.950409 354.528839,401.353210 
	C354.528839,399.966217 354.528839,398.566681 354.528839,396.674103 
	C356.869141,397.474243 358.691772,398.097382 360.490051,398.712219 
	C365.993988,391.258850 363.821655,382.509674 355.111694,379.500061 
z"/>
<path fill="#3F3F3F" opacity="1.000000" stroke="none" 
	d="
M356.539459,628.663330 
	C357.092957,630.431213 357.493896,631.834351 357.999664,633.604370 
	C355.242798,633.604370 352.586578,633.604370 349.523254,633.604370 
	C350.847717,629.906372 352.148621,626.274170 353.769623,621.748169 
	C354.848541,624.448425 355.617737,626.373535 356.539459,628.663330 
z"/>
<path fill="#3F3F3F" opacity="1.000000" stroke="none" 
	d="
M826.034241,631.009277 
	C826.034241,627.545654 826.034241,624.574219 826.034241,620.895935 
	C830.952698,621.301819 836.006775,618.947449 839.960144,623.499329 
	C842.700500,626.654541 842.947327,634.849792 840.557861,638.653625 
	C836.971436,644.363098 831.391235,641.464478 826.034241,642.367310 
	C826.034241,638.379578 826.034241,634.940491 826.034241,631.009277 
z"/>
<path fill="#3F3F3F" opacity="1.000000" stroke="none" 
	d="
M355.474426,379.604980 
	C363.821655,382.509674 365.993988,391.258850 360.490051,398.712219 
	C358.691772,398.097382 356.869141,397.474243 354.528839,396.674103 
	C354.528839,398.566681 354.528839,399.966217 354.528839,401.353210 
	C347.613525,400.950409 344.020020,397.243469 344.024017,390.490417 
	C344.028107,383.567200 347.655945,379.971252 355.474426,379.604980 
z"/>
</svg>